<svg xmlns="http://www.w3.org/2000/svg" width="32" height="32" viewBox="0 0 24 24"><path fill="#888888" d="M5.615 20q-.69 0-1.152-.462Q4 19.075 4 18.385V5.615q0-.69.463-1.152Q4.925 4 5.615 4h5.904q.214 0 .357.143q.143.144.143.357t-.143.357Q11.733 5 11.519 5H5.615q-.23 0-.423.192Q5 5.385 5 5.615v12.77q0 .23.192.423q.193.192.423.192h5.904q.214 0 .357.143q.143.144.143.357t-.143.357q-.143.143-.357.143zm12.445-7.5H9.692q-.213 0-.356-.143q-.144-.144-.144-.357t.144-.357q.143-.143.356-.143h8.368l-1.972-1.971q-.14-.14-.15-.339q-.01-.198.15-.363q.16-.165.354-.168q.195-.003.36.162l2.613 2.614q.243.242.243.565q0 .323-.243.565l-2.613 2.614q-.146.146-.347.153q-.201.006-.367-.159q-.16-.165-.156-.357q.003-.191.162-.35z"/></svg>
