<svg width="100" height="100" viewBox="0 0 100 100" fill="none" xmlns="http://www.w3.org/2000/svg">
<g clip-path="url(#clip0_2014_23)">
<g clip-path="url(#clip1_2014_23)">
<path d="M50 64.8C47.1 64.8 44.4001 64 42 62.4C39.6 60.8 37.7999 58.8 36.6 56.3L24.6 35.5C22.1 40 21 44.9 21 50C21 57.3 23.4 63.6 28.1 69C32.8001 74.4 38.7 77.6 45.7001 78.7L54.1001 64.1C53.3 64.4 51.8 64.8 50 64.8Z" fill="#70C076"/>
<path d="M40.9 38C43.6 35.9 46.6 35 50 35H74.9C72.3 30.6 68.8001 27.3999 64.4 24.8999C60 22.3 55.2 21 50 21C45.5 21 41.2 22 37.3 23.9C33.4001 25.8 29.7 28.6 27.1 32.2L35.5 46C36.3 42.8 38.2 40.1 40.9 38Z" fill="#D55B32"/>
<path d="M76.8 39.1H60C62.9 42 64.9 45.8 64.9 50C64.9 53.1 64 55.9 62.3 58.4999L50.3 79C58.2 78.9 65 76.1 70.6 70.4C76.1999 64.7001 79 57.9 79 50C79 46.3 78.4 42.4 76.8 39.1Z" fill="#E2C94E"/>
<path d="M50 39C56.0001 39 61 44.0001 61 50C61 55.9999 56.0001 60.9999 50 60.9999C44 60.9999 39.0001 56 39.0001 50C39.0001 43.9999 44 39 50 39Z" fill="#21ACD1"/>
</g>
</g>
<defs>
<clipPath id="clip0_2014_23">
<rect width="100" height="100" fill="white"/>
</clipPath>
<clipPath id="clip1_2014_23">
<rect width="58" height="58" fill="white" transform="translate(21 21)"/>
</clipPath>
</defs>
</svg>
