<svg width="100" height="100" viewBox="0 0 100 100" fill="none" xmlns="http://www.w3.org/2000/svg">
<g clip-path="url(#clip0_2015_2)">
<path d="M71.0462 34.2838H81.9557C81.9557 34.2838 80.7985 39.7387 76.5008 39.7387C72.2031 39.7387 71.046 39.7387 71.046 39.7387L71.0462 34.2838Z" fill="#D35933"/>
<path d="M71.6298 43.0111H79.3448C79.3448 43.0111 78.5266 39.1542 75.4872 39.1542C72.4477 39.1542 71.6296 39.1542 71.6296 39.1542L71.6298 43.0111Z" fill="#D35933"/>
<path d="M69.3939 49.2846H68.7511C71.3695 46.7053 72.9945 43.1198 72.9945 39.1541C72.9945 31.2999 66.6272 24.9326 58.773 24.9326C50.9188 24.9326 44.5515 31.2999 44.5515 39.1541C44.5515 43.1198 46.1763 46.7051 48.7949 49.2846H37.2499C37.2499 49.2846 25.6908 49.2846 17.9634 36.4268C17.9634 36.4268 14.3917 75 37.2499 75H69.3941C76.495 75 82.2518 69.2432 82.2518 62.1423C82.2516 55.0411 76.4952 49.2846 69.3939 49.2846Z" fill="#FFC61B"/>
<path d="M69.3938 49.2846H68.751C71.3694 46.7053 72.9945 43.1198 72.9945 39.1541C72.9945 31.2999 66.6272 24.9326 58.773 24.9326C58.0893 24.9326 57.4178 24.9837 56.7601 25.0773V74.9998H69.394C76.495 74.9998 82.2518 69.243 82.2518 62.1421C82.2518 55.0411 76.4952 49.2846 69.3938 49.2846Z" fill="#F4A200"/>
<path d="M62.0848 38.3749C63.4834 38.3749 64.6173 37.241 64.6173 35.8424C64.6173 34.4437 63.4834 33.3099 62.0848 33.3099C60.6861 33.3099 59.5523 34.4437 59.5523 35.8424C59.5523 37.241 60.6861 38.3749 62.0848 38.3749Z" fill="#59595B"/>
<path d="M41.9399 67.9086H62.2651C66.7551 67.9086 70.3951 64.2687 70.3951 59.7787C70.3951 55.2887 66.7551 51.6487 62.2651 51.6487H41.9399C41.9399 51.6487 34.6308 51.6487 29.7446 43.5187C29.7449 43.5181 27.4863 67.9086 41.9399 67.9086Z" fill="#EAA22F"/>
<path d="M62.2651 51.6482H56.7596V67.9086H62.2651C66.7551 67.9086 70.3951 64.2686 70.3951 59.7786C70.3951 55.2886 66.7556 51.6482 62.2651 51.6482Z" fill="#E09112"/>
</g>
<defs>
<clipPath id="clip0_2015_2">
<rect width="100" height="100" fill="white"/>
</clipPath>
</defs>
</svg>
