<svg xmlns="http://www.w3.org/2000/svg" width="32" height="32" viewBox="0 0 24 24"><path fill="#888888" d="M10.421 19.796q-2.383-.533-3.902-2.414Q5 15.5 5 13q0-1.271.465-2.443q.466-1.172 1.283-2.151q.14-.166.329-.169q.188-.002.36.169q.14.14.143.338q.003.198-.138.375q-.715.794-1.079 1.796Q6 11.917 6 13q0 2.102 1.303 3.728q1.303 1.626 3.312 2.105q.172.042.278.182q.107.14.107.312q0 .25-.167.393q-.168.143-.412.076m3.158.039q-.244.067-.412-.08Q13 19.61 13 19.36q0-.166.107-.306q.106-.14.278-.202q1.99-.58 3.303-2.175Q18 15.083 18 13q0-2.5-1.75-4.25T12 7h-.633l1.246 1.246q.16.16.16.354t-.16.354q-.16.16-.353.16q-.195 0-.354-.16l-1.889-1.889q-.13-.13-.183-.267q-.053-.136-.053-.298q0-.162.053-.298q.053-.137.183-.267l1.889-1.889q.16-.16.354-.16q.194 0 .353.16q.16.16.16.354t-.16.354L11.367 6H12q2.927 0 4.963 2.037Q19 10.073 19 13q0 2.475-1.529 4.35q-1.529 1.875-3.892 2.485"/></svg>
