<svg xmlns="http://www.w3.org/2000/svg" width="32" height="32" viewBox="0 0 24 24"><path fill="#888888" d="M11.598 19.58q2.5-.78 4.047-2.87q1.547-2.089 1.547-4.693q0-2.627-1.547-4.722Q14.098 5.2 11.598 4.42q1.471 1.531 2.235 3.49q.763 1.96.763 4.108q0 2.125-.763 4.08q-.764 1.953-2.235 3.484M15.846 5.96q1.102 1.252 1.724 2.825q.622 1.573.622 3.232q0 1.683-.622 3.221q-.622 1.539-1.724 2.79q-.954 1.066-2.156 1.766q-1.202.7-2.592.931q-.242.038-.49.071q-.248.033-.49.035q-.231.007-.391-.148q-.16-.156-.16-.387q0-.142.062-.25q.061-.11.179-.19q1.805-1.421 2.797-3.475q.991-2.054.991-4.364q0-2.292-.991-4.378q-.992-2.085-2.797-3.506q-.118-.081-.18-.19q-.06-.108-.06-.25q0-.231.159-.384q.16-.153.39-.146q.243.002.49.035q.249.033.491.071q1.39.231 2.592.928q1.202.697 2.156 1.763m-1.25 6.057"/></svg>
