<svg xmlns="http://www.w3.org/2000/svg" width="32" height="32" viewBox="0 0 24 24"><path fill="#888888" d="M11.5 12.5V4.346q0-.213.143-.357q.144-.143.357-.143t.357.143q.143.144.143.357V12.5q0 .213-.143.357Q12.213 13 12 13t-.357-.143q-.143-.144-.143-.357M12 20q-1.658 0-3.113-.626q-1.454-.626-2.545-1.716q-1.09-1.09-1.716-2.545Q4 13.658 4 12q0-1.648.657-3.13q.656-1.482 1.826-2.616q.16-.166.363-.185q.204-.019.37.146q.159.16.124.361q-.034.2-.194.372q-1.023.97-1.584 2.278Q5 10.535 5 12q0 2.9 2.05 4.95T12 19q2.925 0 4.963-2.05T19 12q0-1.465-.552-2.78q-.552-1.314-1.6-2.283q-.16-.166-.191-.364q-.032-.198.128-.358q.165-.165.369-.146q.204.02.363.185q1.195 1.134 1.839 2.616Q20 10.352 20 12q0 1.658-.626 3.113q-.626 1.454-1.713 2.545q-1.088 1.09-2.543 1.716Q13.663 20 12 20"/></svg>
