<svg xmlns="http://www.w3.org/2000/svg" width="32" height="32" viewBox="0 0 24 24"><path fill="#888888" d="M18.692 11.975q0-2.05-1.11-3.742q-1.11-1.691-2.978-2.531q-.202-.098-.3-.278q-.098-.18-.017-.369q.098-.201.322-.26q.224-.06.45.038q2.099.979 3.366 2.892q1.267 1.914 1.267 4.25q0 2.335-1.267 4.25q-1.267 1.913-3.365 2.892q-.227.098-.451.039q-.224-.06-.322-.261q-.081-.19.017-.369q.098-.18.3-.278q1.867-.84 2.978-2.531q1.11-1.692 1.11-3.742M7.731 14H5.115q-.343 0-.575-.232q-.232-.232-.232-.576v-2.384q0-.344.232-.576q.232-.232.575-.232h2.616l2.684-2.685q.245-.244.569-.112q.324.132.324.472v8.65q0 .34-.324.472q-.324.132-.569-.112zm8.077-1.998q0 .822-.302 1.555t-.844 1.272q-.175.134-.38.045q-.205-.09-.205-.312V9.388q0-.223.205-.312q.205-.09.38.042q.542.547.844 1.305q.302.758.302 1.58m-5.5-3.153L8.158 11h-2.85v2h2.85l2.15 2.15zM7.808 12"/></svg>
