<svg xmlns="http://www.w3.org/2000/svg" width="32" height="32" viewBox="0 0 24 24"><path fill="#888888" d="M9.066 19h-2.45q-.667 0-1.141-.475Q5 18.051 5 17.385v-2.451l-1.79-1.803q-.237-.243-.348-.534q-.112-.292-.112-.593q0-.302.112-.597q.111-.295.348-.538L5 9.066v-2.45q0-.667.475-1.141Q5.949 5 6.615 5h2.451l1.803-1.79q.243-.237.534-.348q.292-.112.593-.112q.302 0 .597.112q.295.111.538.348L14.934 5h2.45q.667 0 1.141.475q.475.474.475 1.14v2.451l1.79 1.803q.237.243.348.534q.112.292.112.593q0 .302-.112.597q-.111.295-.348.538L19 14.934v2.45q0 .667-.475 1.141q-.474.475-1.14.475h-2.451l-1.803 1.79q-.243.237-.534.348q-.292.112-.593.112q-.302 0-.597-.112q-.295-.111-.538-.348zM12 16.23q1.756 0 2.993-1.237T16.231 12q0-1.756-1.238-2.993T12 7.769q-1.756 0-2.993 1.238T7.769 12q0 1.756 1.238 2.993T12 16.231M9.498 18l2.06 2.058q.173.173.442.173t.442-.173L14.502 18h2.883q.269 0 .442-.173t.173-.442v-2.883l2.058-2.06q.173-.173.173-.442t-.173-.442L18 9.498V6.615q0-.269-.173-.442T17.385 6h-2.883l-2.06-2.058Q12.27 3.77 12 3.77t-.442.173L9.498 6H6.615q-.269 0-.442.173T6 6.615v2.883l-2.058 2.06q-.173.173-.173.442t.173.442L6 14.502v2.883q0 .269.173.442t.442.173zM12 12"/></svg>
