<svg xmlns="http://www.w3.org/2000/svg" width="32" height="32" viewBox="0 0 24 24"><path fill="#888888" d="m17.385 12.708l-2.247 2.246q-.14.14-.344.15q-.204.01-.363-.15q-.16-.16-.16-.354t.16-.354L16.677 12L14.43 9.754q-.14-.14-.15-.344q-.01-.204.15-.364t.354-.16q.194 0 .353.16l2.247 2.246l2.246-2.246q.14-.14.344-.15q.204-.01.363.15q.16.16.16.354t-.16.354L18.092 12l2.246 2.246q.14.14.15.344q.01.204-.15.364t-.353.16q-.195 0-.354-.16zM7.73 14H5.115q-.348 0-.577-.23q-.23-.23-.23-.578v-2.384q0-.348.23-.578q.23-.23.577-.23h2.616l2.684-2.685q.245-.244.569-.116q.324.128.324.476v8.65q0 .348-.324.476t-.569-.116zm2.577-5.15L8.158 11h-2.85v2h2.85l2.15 2.15zM7.808 12"/></svg>
