<svg width="100" height="100" viewBox="0 0 100 100" fill="none" xmlns="http://www.w3.org/2000/svg">
<g clip-path="url(#clip0_2015_117)">
<path d="M65.4319 43.4692C61.797 27.4298 53.2064 22.156 52.2813 20.1411C51.2697 18.7195 50.2447 16.191 50.2447 16.191C50.2278 16.1483 50.2008 16.073 50.1694 16C50.0648 17.4216 50.0109 17.97 48.6666 19.4039C46.585 21.0311 35.9049 29.9908 35.0361 48.2137C34.2257 65.2095 47.3156 75.3368 49.0859 76.628L49.287 76.7707V76.7583C49.2983 76.8437 49.849 80.8039 50.2357 85H51.6227C51.9481 82.0339 52.4359 79.0878 53.0839 76.1751L53.1962 76.1021C53.9881 75.5344 54.7431 74.917 55.4566 74.2535L55.5375 74.1804C59.3006 70.7046 66.0658 62.6653 65.9995 49.8477C65.9855 47.7095 65.7957 45.5762 65.4319 43.4692ZM50.0884 67.0322C50.0884 67.0322 50.0884 43.195 50.8752 43.1995C51.4889 43.1995 52.2836 73.9467 52.2836 73.9467C51.1911 73.8152 50.0884 68.8864 50.0884 67.0322Z" fill="#13AA52"/>
</g>
<defs>
<clipPath id="clip0_2015_117">
<rect width="100" height="100" fill="white"/>
</clipPath>
</defs>
</svg>
