<svg width="100" height="100" viewBox="0 0 100 100" fill="none" xmlns="http://www.w3.org/2000/svg">
<g clip-path="url(#clip0_2014_36)">
<path d="M31.3333 75C30.4519 75 29.7135 74.7 29.1182 74.1C28.523 73.5 28.2243 72.7583 28.2222 71.875V53.125H25.1111C24.2296 53.125 23.4913 52.825 22.896 52.225C22.3008 51.625 22.0021 50.8833 22 50C21.9979 49.1167 22.2966 48.375 22.896 47.775C23.4954 47.175 24.2338 46.875 25.1111 46.875H37.5556C38.437 46.875 39.1764 47.175 39.7738 47.775C40.3711 48.375 40.6687 49.1167 40.6667 50C40.6646 50.8833 40.3659 51.626 39.7707 52.2281C39.1754 52.8302 38.437 53.1292 37.5556 53.125H34.4444V71.875C34.4444 72.7604 34.1458 73.5031 33.5484 74.1031C32.9511 74.7031 32.2127 75.0021 31.3333 75ZM31.3333 40.625C30.4519 40.625 29.7135 40.325 29.1182 39.725C28.523 39.125 28.2243 38.3833 28.2222 37.5V28.125C28.2222 27.2396 28.5209 26.4979 29.1182 25.9C29.7156 25.3021 30.4539 25.0021 31.3333 25C32.2127 24.9979 32.9522 25.2979 33.5516 25.9C34.151 26.5021 34.4486 27.2438 34.4444 28.125V37.5C34.4444 38.3854 34.1458 39.1281 33.5484 39.7281C32.9511 40.3281 32.2127 40.6271 31.3333 40.625ZM43.7778 40.625C42.8963 40.625 42.1579 40.325 41.5627 39.725C40.9674 39.125 40.6687 38.3833 40.6667 37.5C40.6646 36.6167 40.9633 35.875 41.5627 35.275C42.1621 34.675 42.9004 34.375 43.7778 34.375H46.8889V28.125C46.8889 27.2396 47.1876 26.4979 47.7849 25.9C48.3822 25.3021 49.1206 25.0021 50 25C50.8794 24.9979 51.6188 25.2979 52.2182 25.9C52.8176 26.5021 53.1153 27.2438 53.1111 28.125V34.375H56.2222C57.1037 34.375 57.8431 34.675 58.4404 35.275C59.0378 35.875 59.3354 36.6167 59.3333 37.5C59.3313 38.3833 59.0326 39.126 58.4373 39.7281C57.8421 40.3302 57.1037 40.6292 56.2222 40.625H43.7778ZM50 75C49.1185 75 48.3801 74.7 47.7849 74.1C47.1896 73.5 46.891 72.7583 46.8889 71.875V50C46.8889 49.1146 47.1876 48.3729 47.7849 47.775C48.3822 47.1771 49.1206 46.8771 50 46.875C50.8794 46.8729 51.6188 47.1729 52.2182 47.775C52.8176 48.3771 53.1153 49.1188 53.1111 50V71.875C53.1111 72.7604 52.8124 73.5031 52.2151 74.1031C51.6178 74.7031 50.8794 75.0021 50 75ZM68.6667 75C67.7852 75 67.0468 74.7 66.4515 74.1C65.8563 73.5 65.5576 72.7583 65.5555 71.875V65.625H62.4444C61.563 65.625 60.8246 65.325 60.2293 64.725C59.6341 64.125 59.3354 63.3833 59.3333 62.5C59.3313 61.6167 59.6299 60.875 60.2293 60.275C60.8287 59.675 61.5671 59.375 62.4444 59.375H74.8889C75.7704 59.375 76.5098 59.675 77.1071 60.275C77.7044 60.875 78.0021 61.6167 78 62.5C77.9979 63.3833 77.6992 64.126 77.104 64.7281C76.5087 65.3302 75.7704 65.6292 74.8889 65.625H71.7778V71.875C71.7778 72.7604 71.4791 73.5031 70.8818 74.1031C70.2844 74.7031 69.5461 75.0021 68.6667 75ZM68.6667 53.125C67.7852 53.125 67.0468 52.825 66.4515 52.225C65.8563 51.625 65.5576 50.8833 65.5555 50V28.125C65.5555 27.2396 65.8542 26.4979 66.4515 25.9C67.0489 25.3021 67.7873 25.0021 68.6667 25C69.5461 24.9979 70.2855 25.2979 70.8849 25.9C71.4843 26.5021 71.7819 27.2438 71.7778 28.125V50C71.7778 50.8854 71.4791 51.6281 70.8818 52.2281C70.2844 52.8281 69.5461 53.1271 68.6667 53.125Z" fill="white"/>
</g>
<defs>
<clipPath id="clip0_2014_36">
<rect width="100" height="100" fill="white"/>
</clipPath>
</defs>
</svg>
