<svg width="100" height="100" viewBox="0 0 100 100" fill="none" xmlns="http://www.w3.org/2000/svg">
<g clip-path="url(#clip0_2015_68)">
<path d="M48.4229 20.3392C47.0719 20.9544 46.1959 22.2875 46.1959 23.7524V43.6163L37.2881 35.9403C35.7144 34.5779 33.3241 34.7244 31.9434 36.2772C30.5626 37.8446 30.7111 40.2031 32.2997 41.5655L42.0538 50.0032L32.2997 58.441C30.7111 59.8033 30.5626 62.1618 31.9434 63.7146C33.3241 65.282 35.7144 65.4285 37.2881 64.0662L46.1959 56.3902V76.2541C46.1959 77.719 47.0719 79.052 48.4229 79.6673C49.7887 80.2679 51.3773 80.0481 52.4908 79.0667L67.6935 65.9412C68.5249 65.2381 69 64.2127 69 63.1286C69 62.0446 68.5249 61.0192 67.6935 60.3161L55.757 50.0032L67.6935 39.6904C68.5249 38.9872 69 37.9618 69 36.8778C69 35.7938 68.5249 34.7684 67.6935 34.0652L52.4908 20.9398C51.3773 19.9583 49.7887 19.7239 48.4229 20.3392ZM53.7973 32.0144L59.4389 36.8778L53.7973 41.7412V32.0144ZM53.7973 58.2652L59.4389 63.1286L53.7973 67.9921V58.2652Z" fill="#7CCEEA"/>
</g>
<defs>
<clipPath id="clip0_2015_68">
<rect width="100" height="100" fill="white"/>
</clipPath>
</defs>
</svg>
