<svg width="100" height="100" viewBox="0 0 100 100" fill="none" xmlns="http://www.w3.org/2000/svg">
<g clip-path="url(#clip0_2015_124)">
<circle cx="50" cy="50" r="29" fill="#542A5C"/>
<rect x="33.8889" y="35.7302" width="32.2222" height="31.3016" fill="#542A5C"/>
<path d="M48.075 74.1709C39.65 73.0887 32.5164 68.1122 29.0354 60.8888C27.2575 57.1993 26.6861 54.5992 26.7054 50.2855C26.7352 43.5951 28.9324 38.3484 33.652 33.6969C36.5999 30.7915 39.0346 29.2376 42.5462 28.0202C49.1657 25.7253 56.7351 26.4645 62.7693 29.9952C63.837 30.62 65.9537 32.3696 67.4731 33.8834C70.5229 36.9218 72.5689 40.4747 73.6688 44.6418C74.4367 47.551 74.4385 52.931 73.6727 56.1002C71.6501 64.4703 64.4847 71.6548 56.3096 73.5096C53.7751 74.0846 49.8545 74.3995 48.075 74.1709ZM52.3624 55.6754C57.9301 52.902 62.4856 50.5535 62.4856 50.4565C62.4856 50.2853 42.4098 40.1952 42.0691 40.1952C41.9756 40.1952 41.8991 44.8128 41.8991 50.4565C41.8991 56.1002 41.9756 60.7178 42.0691 60.7178C42.1626 60.7178 46.7946 58.4487 52.3624 55.6754Z" fill="#E1DEDA"/>
</g>
<defs>
<clipPath id="clip0_2015_124">
<rect width="100" height="100" fill="white"/>
</clipPath>
</defs>
</svg>
