<svg width="100" height="100" viewBox="0 0 100 100" fill="none" xmlns="http://www.w3.org/2000/svg">
<g clip-path="url(#clip0_2015_95)">
<path d="M46.6149 77.798C43.0018 77.3124 41.0799 76.7268 37.6183 75.0569C32.0106 72.3518 27.5918 67.9463 24.8372 62.3143C22.8364 58.2235 22 54.581 22 49.9586C22 45.3357 22.8365 41.6931 24.8376 37.6029C29.5676 27.9346 39.1382 22 50 22C54.6161 22 58.2497 22.8361 62.3817 24.8491C72.0808 29.5742 78 39.0905 78 49.9586C78 60.7889 72.0407 70.3704 62.3817 75.07C57.4925 77.4489 51.6014 78.4681 46.6149 77.798ZM58.3494 73.7989C65.6928 71.0544 71.0579 65.7097 73.9172 58.2905C74.8453 55.8824 74.9363 55.138 74.9363 49.9586C74.9363 44.7791 74.8453 44.0348 73.9172 41.6267C71.0638 34.2226 65.7692 28.9391 58.3494 26.0917C55.9363 25.1656 55.1904 25.0747 50 25.0747C44.8096 25.0747 44.0637 25.1656 41.6506 26.0917C34.2137 28.9457 28.8499 34.3086 26.1129 41.6267C24.7906 45.1621 24.4404 52.0711 25.3917 55.8524C27.6454 64.81 34.7453 72.0241 43.7109 74.4663C47.1988 75.4165 54.9694 75.0622 58.3494 73.7989ZM39.7801 68.2585C45.6997 66.5028 49.2408 62.3068 49.2661 57.018C49.2942 51.1731 46.029 47.0554 40.2245 45.6157C37.6223 44.9702 37.6172 44.9662 36.9476 43.0512C35.5891 39.1659 36.3714 34.3813 38.9113 31.0414C39.6869 30.0215 40.3683 29.2335 40.4254 29.2905C40.4825 29.3475 40.0671 30.326 39.5023 31.4648C36.6015 37.314 40.0485 45.23 46.2841 47.0389C50.8963 48.3769 55.1584 47.2447 58.4623 43.8038C60.1019 42.0962 60.2655 42.0207 61.7969 42.2651C65.2628 42.8181 68.7047 45.1105 70.7929 48.2565C72.428 50.7198 72.3382 51.2646 70.6261 49.2686C65.3456 43.1125 54.7517 44.6314 51.5752 52C50.3656 54.806 50.1781 57.257 50.9662 59.9623C51.7525 62.6614 51.5128 63.3654 49.1667 65.2467C46.511 67.3765 44.0764 68.3605 40.9183 68.5805L38.0113 68.7831L39.7801 68.2585Z" fill="#FEFEFE" stroke="#FEFEFE"/>
</g>
<defs>
<clipPath id="clip0_2015_95">
<rect width="100" height="100" fill="white"/>
</clipPath>
</defs>
</svg>
