<svg width="100" height="100" viewBox="0 0 100 100" fill="none" xmlns="http://www.w3.org/2000/svg">
<g clip-path="url(#clip0_2015_79)">
<path d="M55 42.5H45C44.337 42.5 43.7011 42.7634 43.2322 43.2322C42.7634 43.7011 42.5 44.337 42.5 45V55C42.5 55.663 42.7634 56.2989 43.2322 56.7678C43.7011 57.2366 44.337 57.5 45 57.5H55C55.663 57.5 56.2989 57.2366 56.7678 56.7678C57.2366 56.2989 57.5 55.663 57.5 55V45C57.5 44.337 57.2366 43.7011 56.7678 43.2322C56.2989 42.7634 55.663 42.5 55 42.5ZM52.5 52.5H47.5V47.5H52.5V52.5ZM72.5 52.5C73.163 52.5 73.7989 52.2366 74.2678 51.7678C74.7366 51.2989 75 50.663 75 50C75 49.337 74.7366 48.7011 74.2678 48.2322C73.7989 47.7634 73.163 47.5 72.5 47.5H67.5V42.5H72.5C73.163 42.5 73.7989 42.2366 74.2678 41.7678C74.7366 41.2989 75 40.663 75 40C75 39.337 74.7366 38.7011 74.2678 38.2322C73.7989 37.7634 73.163 37.5 72.5 37.5H67.05C66.6767 36.4515 66.0747 35.4992 65.2878 34.7123C64.5008 33.9253 63.5485 33.3233 62.5 32.95V27.5C62.5 26.837 62.2366 26.2011 61.7678 25.7322C61.2989 25.2634 60.663 25 60 25C59.337 25 58.7011 25.2634 58.2322 25.7322C57.7634 26.2011 57.5 26.837 57.5 27.5V32.5H52.5V27.5C52.5 26.837 52.2366 26.2011 51.7678 25.7322C51.2989 25.2634 50.663 25 50 25C49.337 25 48.7011 25.2634 48.2322 25.7322C47.7634 26.2011 47.5 26.837 47.5 27.5V32.5H42.5V27.5C42.5 26.837 42.2366 26.2011 41.7678 25.7322C41.2989 25.2634 40.663 25 40 25C39.337 25 38.7011 25.2634 38.2322 25.7322C37.7634 26.2011 37.5 26.837 37.5 27.5V32.95C36.4515 33.3233 35.4992 33.9253 34.7123 34.7123C33.9253 35.4992 33.3233 36.4515 32.95 37.5H27.5C26.837 37.5 26.2011 37.7634 25.7322 38.2322C25.2634 38.7011 25 39.337 25 40C25 40.663 25.2634 41.2989 25.7322 41.7678C26.2011 42.2366 26.837 42.5 27.5 42.5H32.5V47.5H27.5C26.837 47.5 26.2011 47.7634 25.7322 48.2322C25.2634 48.7011 25 49.337 25 50C25 50.663 25.2634 51.2989 25.7322 51.7678C26.2011 52.2366 26.837 52.5 27.5 52.5H32.5V57.5H27.5C26.837 57.5 26.2011 57.7634 25.7322 58.2322C25.2634 58.7011 25 59.337 25 60C25 60.663 25.2634 61.2989 25.7322 61.7678C26.2011 62.2366 26.837 62.5 27.5 62.5H32.95C33.3233 63.5485 33.9253 64.5008 34.7123 65.2878C35.4992 66.0747 36.4515 66.6767 37.5 67.05V72.5C37.5 73.163 37.7634 73.7989 38.2322 74.2678C38.7011 74.7366 39.337 75 40 75C40.663 75 41.2989 74.7366 41.7678 74.2678C42.2366 73.7989 42.5 73.163 42.5 72.5V67.5H47.5V72.5C47.5 73.163 47.7634 73.7989 48.2322 74.2678C48.7011 74.7366 49.337 75 50 75C50.663 75 51.2989 74.7366 51.7678 74.2678C52.2366 73.7989 52.5 73.163 52.5 72.5V67.5H57.5V72.5C57.5 73.163 57.7634 73.7989 58.2322 74.2678C58.7011 74.7366 59.337 75 60 75C60.663 75 61.2989 74.7366 61.7678 74.2678C62.2366 73.7989 62.5 73.163 62.5 72.5V67.05C63.5485 66.6767 64.5008 66.0747 65.2878 65.2878C66.0747 64.5008 66.6767 63.5485 67.05 62.5H72.5C73.163 62.5 73.7989 62.2366 74.2678 61.7678C74.7366 61.2989 75 60.663 75 60C75 59.337 74.7366 58.7011 74.2678 58.2322C73.7989 57.7634 73.163 57.5 72.5 57.5H67.5V52.5H72.5ZM62.5 60C62.5 60.663 62.2366 61.2989 61.7678 61.7678C61.2989 62.2366 60.663 62.5 60 62.5H40C39.337 62.5 38.7011 62.2366 38.2322 61.7678C37.7634 61.2989 37.5 60.663 37.5 60V40C37.5 39.337 37.7634 38.7011 38.2322 38.2322C38.7011 37.7634 39.337 37.5 40 37.5H60C60.663 37.5 61.2989 37.7634 61.7678 38.2322C62.2366 38.7011 62.5 39.337 62.5 40V60Z" fill="white"/>
</g>
<defs>
<clipPath id="clip0_2015_79">
<rect width="100" height="100" fill="white"/>
</clipPath>
</defs>
</svg>
