<svg width="100" height="100" viewBox="0 0 100 100" fill="none" xmlns="http://www.w3.org/2000/svg">
<g clip-path="url(#clip0_2006_5)">
<path d="M54.3441 19.5417C50.471 19.5417 47.3458 19.5417 44.8893 19.8732C42.3393 20.2132 40.1916 20.9498 38.486 22.6527C37.0013 24.1402 36.2476 25.9677 35.8538 28.1153C35.4713 30.2035 35.3976 32.7563 35.3806 35.822C35.3776 36.3856 35.5986 36.9273 35.995 37.3279C36.3914 37.7286 36.9307 37.9553 37.4943 37.9583C38.0579 37.9613 38.5996 37.7403 39.0002 37.3439C39.4009 36.9476 39.6276 36.4083 39.6306 35.8447C39.6476 32.7478 39.727 30.552 40.033 28.8832C40.3305 27.2795 40.8036 26.3473 41.4921 25.6588C42.277 24.874 43.3791 24.364 45.4588 24.0835C47.598 23.7973 50.4341 23.7917 54.5 23.7917H57.3333C61.402 23.7917 64.2381 23.7973 66.3773 24.0835C68.457 24.364 69.5563 24.8768 70.344 25.6588C71.126 26.4437 71.636 27.543 71.9165 29.6255C72.2055 31.7618 72.2083 34.6008 72.2083 38.6667V61.3333C72.2083 65.3992 72.2055 68.2353 71.9165 70.3773C71.636 72.457 71.126 73.5563 70.3411 74.3412C69.5563 75.126 68.457 75.636 66.3773 75.9165C64.2381 76.2027 61.402 76.2083 57.3333 76.2083H54.5C50.4341 76.2083 47.598 76.2027 45.456 75.9165C43.3791 75.636 42.277 75.1232 41.4921 74.3412C40.8036 73.6498 40.3305 72.7205 40.033 71.1168C39.727 69.448 39.6476 67.2522 39.6306 64.1553C39.6292 63.8763 39.5727 63.6002 39.4646 63.343C39.3564 63.0857 39.1986 62.8523 39.0002 62.6561C38.8019 62.4598 38.5668 62.3045 38.3084 62.1991C38.05 62.0937 37.7734 62.0402 37.4943 62.0417C37.2153 62.0432 36.9392 62.0996 36.682 62.2078C36.4247 62.3159 36.1913 62.4737 35.995 62.6721C35.7988 62.8705 35.6435 63.1055 35.5381 63.3639C35.4326 63.6223 35.3792 63.8989 35.3806 64.178C35.3976 67.2437 35.4713 69.7965 35.8538 71.8847C36.2505 74.0323 37.0013 75.8598 38.4888 77.3473C40.1916 79.053 42.3421 79.784 44.8921 80.1297C47.3458 80.4583 50.471 80.4583 54.3441 80.4583H57.4891C61.3651 80.4583 64.4875 80.4583 66.944 80.1297C69.494 79.784 71.6416 79.053 73.3473 77.3473C75.053 75.6417 75.784 73.494 76.1296 70.944C76.4583 68.4875 76.4583 65.3623 76.4583 61.4892V38.5108C76.4583 34.6377 76.4583 31.5125 76.1296 29.056C75.7868 26.506 75.053 24.3583 73.3473 22.6527C71.6416 20.947 69.494 20.216 66.944 19.8732C64.4875 19.5417 61.3623 19.5417 57.4891 19.5417H54.3441Z" fill="white"/>
<path d="M54.5 47.875C55.0635 47.875 55.604 48.0989 56.0026 48.4974C56.4011 48.8959 56.625 49.4364 56.625 50C56.625 50.5636 56.4011 51.1041 56.0026 51.5026C55.604 51.9011 55.0635 52.125 54.5 52.125H23.4098L28.966 56.885C29.3943 57.2517 29.6594 57.7735 29.703 58.3357C29.7465 58.8979 29.565 59.4543 29.1983 59.8827C28.8316 60.311 28.3097 60.5761 27.7476 60.6197C27.1854 60.6632 26.6289 60.4817 26.2006 60.115L16.284 51.615C16.0507 51.4155 15.8634 51.1678 15.735 50.889C15.6065 50.6103 15.54 50.3069 15.54 50C15.54 49.693 15.6065 49.3897 15.735 49.111C15.8634 48.8322 16.0507 48.5845 16.284 48.385L26.2006 39.885C26.4127 39.7034 26.6585 39.5654 26.9239 39.4788C27.1893 39.3922 27.4692 39.3588 27.7476 39.3803C28.0259 39.4019 28.2973 39.4781 28.5462 39.6045C28.7951 39.731 29.0167 39.9052 29.1983 40.1173C29.3799 40.3294 29.5179 40.5752 29.6045 40.8406C29.6911 41.106 29.7245 41.3859 29.703 41.6643C29.6814 41.9426 29.6052 42.214 29.4787 42.4629C29.3523 42.7119 29.178 42.9334 28.966 43.115L23.4126 47.875H54.5Z" fill="white"/>
</g>
<defs>
<clipPath id="clip0_2006_5">
<rect width="100" height="100" fill="white"/>
</clipPath>
</defs>
</svg>
