<svg width="100" height="100" viewBox="0 0 100 100" fill="none" xmlns="http://www.w3.org/2000/svg">
<g clip-path="url(#clip0_2006_20)">
<path d="M50 20.8333V32.5" stroke="white" stroke-width="2" stroke-linecap="round"/>
<path d="M52.1875 23.0208C52.1875 22.4407 51.957 21.8843 51.5468 21.474C51.1366 21.0638 50.5802 20.8333 50 20.8333C49.4198 20.8333 48.8634 21.0638 48.4532 21.474C48.043 21.8843 47.8125 22.4407 47.8125 23.0208V34.6875C47.8125 35.2677 48.043 35.8241 48.4532 36.2343C48.8634 36.6445 49.4198 36.875 50 36.875C50.5802 36.875 51.1366 36.6445 51.5468 36.2343C51.957 35.8241 52.1875 35.2677 52.1875 34.6875V23.0208Z" fill="white"/>
<path d="M40.6433 30.0121C40.908 29.9002 41.1481 29.7374 41.3498 29.5327C41.5515 29.3281 41.7109 29.0858 41.819 28.8196C41.9271 28.5533 41.9816 28.2684 41.9796 27.9811C41.9775 27.6938 41.9189 27.4097 41.8071 27.145C41.6952 26.8803 41.5324 26.6403 41.3278 26.4386C41.1231 26.2368 40.8808 26.0774 40.6146 25.9693C40.3483 25.8613 40.0634 25.8067 39.7761 25.8087C39.4888 25.8108 39.2047 25.8694 38.94 25.9812C33.7874 28.1565 29.3906 31.8028 26.2997 36.4641C23.2088 41.1253 21.561 46.5945 21.5625 52.1875C21.5625 67.8937 34.2937 80.625 50 80.625C65.7063 80.625 78.4375 67.8937 78.4375 52.1875C78.439 46.5945 76.7912 41.1253 73.7003 36.4641C70.6094 31.8028 66.2126 28.1565 61.06 25.9812C60.7953 25.8694 60.5112 25.8108 60.2239 25.8087C59.9366 25.8067 59.6517 25.8613 59.3854 25.9693C59.1192 26.0774 58.8769 26.2368 58.6723 26.4386C58.4676 26.6403 58.3048 26.8803 58.1929 27.145C58.0811 27.4097 58.0225 27.6938 58.0204 27.9811C58.0184 28.2684 58.0729 28.5533 58.181 28.8196C58.2891 29.0858 58.4485 29.3281 58.6502 29.5327C58.852 29.7374 59.092 29.9002 59.3567 30.0121C64.4681 32.176 68.6746 36.0399 71.264 40.9495C73.8533 45.8591 74.6664 51.5127 73.5655 56.953C72.4646 62.3934 69.5174 67.286 65.2229 70.8026C60.9284 74.3192 55.5506 76.2436 50 76.25C44.444 76.2536 39.058 74.3344 34.7562 70.8183C30.4543 67.3021 27.5019 62.4056 26.3999 56.96C25.2979 51.5144 26.1144 45.8553 28.7107 40.9432C31.3069 36.0312 35.5231 32.1689 40.6433 30.0121Z" fill="white"/>
</g>
<defs>
<clipPath id="clip0_2006_20">
<rect width="100" height="100" fill="white"/>
</clipPath>
</defs>
</svg>
