<svg width="100" height="100" viewBox="0 0 100 100" fill="none" xmlns="http://www.w3.org/2000/svg">
<g clip-path="url(#clip0_2006_35)">
<path fill-rule="evenodd" clip-rule="evenodd" d="M47.2968 24.7055C42.5234 25.2159 37.992 27.0665 34.226 30.0436C30.4601 33.0206 27.6135 37.0026 26.0151 41.5292C24.4167 46.0558 24.1319 50.9423 25.1934 55.624C26.255 60.3056 28.6197 64.5914 32.0141 67.9859C35.4086 71.3803 39.6944 73.745 44.376 74.8066C49.0577 75.8681 53.9442 75.5833 58.4708 73.9849C62.9974 72.3865 66.9794 69.5399 69.9564 65.774C72.9335 62.008 74.7841 57.4766 75.2945 52.7033C73.5521 54.9172 71.3602 56.7367 68.8634 58.0419C66.3666 59.347 63.6215 60.1082 60.8091 60.2752C57.9966 60.4422 55.1808 60.0112 52.547 59.0107C49.9133 58.0102 47.5215 56.4629 45.5293 54.4707C43.5371 52.4785 41.9898 50.0867 40.9893 47.453C39.9888 44.8192 39.5578 42.0034 39.7248 39.191C39.8918 36.3785 40.653 33.6334 41.9581 31.1366C43.2633 28.6398 45.0828 26.4479 47.2968 24.7055ZM20.4375 50C20.4375 33.6733 33.6733 20.4375 50 20.4375C51.9718 20.4375 52.9563 22.0077 53.1268 23.259C53.289 24.4635 52.8435 25.9952 51.4603 26.8312C49.4059 28.0711 47.6606 29.7623 46.3566 31.7766C45.0527 33.7909 44.2243 36.0756 43.9342 38.4575C43.6441 40.8395 43.8999 43.2562 44.6822 45.5246C45.4645 47.7931 46.7528 49.8537 48.4496 51.5504C50.1463 53.2472 52.2069 54.5355 54.4754 55.3178C56.7438 56.1001 59.1605 56.3559 61.5425 56.0658C63.9244 55.7757 66.2091 54.9473 68.2234 53.6434C70.2377 52.3394 71.9289 50.5941 73.1688 48.5398C74.0048 47.1565 75.5365 46.711 76.741 46.8733C77.9923 47.0438 79.5625 48.0283 79.5625 50C79.5625 66.3268 66.3268 79.5625 50 79.5625C33.6733 79.5625 20.4375 66.3268 20.4375 50ZM66.5 24.5625C65.953 24.5625 65.4284 24.3452 65.0416 23.9584C64.6548 23.5716 64.4375 23.047 64.4375 22.5C64.4375 21.953 64.6548 21.4284 65.0416 21.0416C65.4284 20.6548 65.953 20.4375 66.5 20.4375H77.5C77.9077 20.4379 78.3061 20.559 78.6449 20.7857C78.9838 21.0123 79.2478 21.3343 79.4038 21.711C79.5598 22.0876 79.6006 22.502 79.5212 22.9019C79.4417 23.3017 79.2456 23.6691 78.9575 23.9575L71.4775 31.4375H77.5C78.047 31.4375 78.5716 31.6548 78.9584 32.0416C79.3452 32.4284 79.5625 32.953 79.5625 33.5C79.5625 34.047 79.3452 34.5716 78.9584 34.9584C78.5716 35.3452 78.047 35.5625 77.5 35.5625H66.5C66.0923 35.5621 65.6939 35.441 65.3551 35.2143C65.0162 34.9877 64.7522 34.6657 64.5962 34.289C64.4403 33.9124 64.3994 33.498 64.4789 33.0981C64.5583 32.6983 64.7544 32.3309 65.0425 32.0425L72.5225 24.5625H66.5ZM54.125 41.0625C53.578 41.0625 53.0534 40.8452 52.6666 40.4584C52.2798 40.0716 52.0625 39.547 52.0625 39C52.0625 38.453 52.2798 37.9284 52.6666 37.5416C53.0534 37.1548 53.578 36.9375 54.125 36.9375H62.375C62.7827 36.9379 63.1811 37.059 63.5199 37.2857C63.8588 37.5123 64.1228 37.8343 64.2788 38.211C64.4348 38.5876 64.4756 39.002 64.3962 39.4019C64.3167 39.8017 64.1206 40.1691 63.8325 40.4575L59.1025 45.1875H62.375C62.922 45.1875 63.4466 45.4048 63.8334 45.7916C64.2202 46.1784 64.4375 46.703 64.4375 47.25C64.4375 47.797 64.2202 48.3216 63.8334 48.7084C63.4466 49.0952 62.922 49.3125 62.375 49.3125H54.125C53.7173 49.3121 53.3189 49.191 52.9801 48.9643C52.6412 48.7377 52.3772 48.4157 52.2212 48.039C52.0653 47.6624 52.0244 47.248 52.1038 46.8481C52.1833 46.4483 52.3794 46.0809 52.6675 45.7925L57.3975 41.0625H54.125Z" fill="white"/>
</g>
<defs>
<clipPath id="clip0_2006_35">
<rect width="100" height="100" fill="white"/>
</clipPath>
</defs>
</svg>
