<svg width="100" height="100" viewBox="0 0 100 100" fill="none" xmlns="http://www.w3.org/2000/svg">
  <g clip-path="url(#clip0_4001_8)">
    <path
      d="M67.2004 27.706L62.4064 30.3438L60.0417 34.8647L62.4064 40.4063L66.8914 45.265L71.7501 42.5625L74.7293 37.4271L71.7501 31.0625L67.2004 27.706Z"
      fill="#0066DA" />
    <path
      d="M48.6709 46.2353L60.0416 34.8647C63.3909 37.4091 65.8527 41.0567 66.8912 45.265L51.2908 60.8655C49.8856 62.2706 47.6108 62.2706 46.2092 60.8655L35.6903 50.3466C34.5691 49.2253 34.5691 47.4033 35.6903 46.282L40.1717 41.8006C41.293 40.6794 43.115 40.6794 44.2362 41.8006L48.6709 46.2353ZM79.7784 28.3097L75.218 23.7492C74.0967 22.628 72.2747 22.628 71.1534 23.7492L67.2003 27.7023C70.3592 30.3473 72.9395 33.6608 74.7292 37.4234L79.7784 32.3742C80.9033 31.253 80.9033 29.4345 79.7784 28.3097ZM67.4375 49.75C67.4375 60.0712 59.0712 68.4375 48.75 68.4375C38.4287 68.4375 30.0625 60.0712 30.0625 49.75C30.0625 39.4288 38.4287 31.0625 48.75 31.0625C52.9942 31.0625 56.9042 32.4784 60.0416 34.8647L67.2003 27.7059C62.2086 23.5228 55.7758 21 48.75 21C32.8728 21 20 33.8728 20 49.75C20 65.6272 32.8728 78.5 48.75 78.5C64.6272 78.5 77.5 65.6272 77.5 49.75C77.5 45.3405 76.5045 41.1609 74.7292 37.427L66.8912 45.265C67.247 46.7025 67.4375 48.2047 67.4375 49.75Z"
      fill="#2684FC" />
  </g>
  <defs>
    <clipPath id="clip0_4001_8">
      <rect width="100" height="100" fill="white" />
    </clipPath>
  </defs>
</svg>
