<svg width="100" height="100" viewBox="0 0 100 100" fill="none" xmlns="http://www.w3.org/2000/svg">
<g clip-path="url(#clip0_2004_8)">
<path d="M40.6484 74.2812C38.8438 74.2812 39.0078 73.625 38.5156 71.9844L33.2656 54.7578L73.4609 31.1328" fill="#D4F1FE"/>
<path d="M40.6484 74.2812C41.7969 74.2812 42.4531 73.625 43.2734 72.9688L50.6562 65.9141L41.4688 60.3359" fill="#5190AC"/>
<path d="M41.4688 60.3359L63.6172 76.5781C65.9141 78.0547 67.8828 77.2344 68.5391 74.2813L77.5625 31.9531C78.3828 28.3438 76.086 26.7031 73.625 27.8516L20.961 48.1953C17.5156 49.5078 17.5156 51.6406 20.3047 52.4609L33.9219 56.7266L65.0938 36.875C66.5703 36.0547 67.8828 36.3828 66.8985 37.5312" fill="#37AEE2"/>
</g>
<defs>
<clipPath id="clip0_2004_8">
<rect width="100" height="100" fill="white"/>
</clipPath>
</defs>
</svg>
