<svg width="100" height="100" viewBox="0 0 100 100" fill="none" xmlns="http://www.w3.org/2000/svg">
<g clip-path="url(#clip0_2004_68)">
<path d="M24.6018 28.3089C31.76 26.4735 69.3849 26.657 75.6253 28.3089C78.3782 29.043 80.7641 31.2454 81.4983 33.9983C83.1501 40.7891 83.1501 59.3262 81.4983 65.9339C80.7642 68.6869 78.3783 70.8901 75.6253 71.6243C68.8342 73.4596 31.2096 73.4596 24.6018 71.6243C21.8488 70.8901 19.4629 68.6869 18.7288 65.9339C16.8935 58.7757 17.077 40.9727 18.7288 33.9983C19.4631 31.2454 21.8489 29.043 24.6018 28.3089ZM43.5061 59.7854L60.5755 49.9661L43.5061 40.3303V59.7854Z" fill="#ED1D24"/>
<path d="M60.5752 49.9664L43.5062 59.7857V40.3307L60.5752 49.9664Z" fill="white"/>
</g>
<defs>
<clipPath id="clip0_2004_68">
<rect width="100" height="100" fill="white"/>
</clipPath>
</defs>
</svg>
