<svg width="100" height="100" viewBox="0 0 100 100" fill="none" xmlns="http://www.w3.org/2000/svg">
<g clip-path="url(#clip0_2004_74)">
<g clip-path="url(#clip1_2004_74)">
<path d="M49.5 77C64.6878 77 77 64.6878 77 49.5C77 34.3122 64.6878 22 49.5 22C34.3122 22 22 34.3122 22 49.5C22 64.6878 34.3122 77 49.5 77Z" fill="#ED1D24"/>
<path d="M49.5 36.3863C52.0937 36.3863 54.6291 37.1554 56.7856 38.5963C58.9421 40.0373 60.623 42.0854 61.6155 44.4816C62.6081 46.8778 62.8678 49.5145 62.3618 52.0584C61.8558 54.6022 60.6068 56.9388 58.7728 58.7728C56.9388 60.6068 54.6022 61.8557 52.0584 62.3617C49.5146 62.8677 46.8778 62.608 44.4816 61.6155C42.0854 60.623 40.0373 58.9421 38.5963 56.7856C37.1554 54.6291 36.3863 52.0936 36.3863 49.5C36.3898 46.0231 37.7726 42.6897 40.2311 40.2311C42.6897 37.7726 46.0231 36.3898 49.5 36.3863ZM49.5 35.1245C46.6568 35.1245 43.8774 35.9676 41.5134 37.5472C39.1494 39.1268 37.3068 41.372 36.2188 43.9987C35.1307 46.6255 34.8461 49.5159 35.4007 52.3045C35.9554 55.0931 37.3246 57.6546 39.335 59.665C41.3454 61.6755 43.9069 63.0446 46.6955 63.5993C49.4841 64.1539 52.3745 63.8693 55.0013 62.7812C57.628 61.6932 59.8732 59.8506 61.4528 57.4866C63.0324 55.1226 63.8755 52.3432 63.8755 49.5C63.8759 47.6121 63.5043 45.7426 62.7819 43.9983C62.0596 42.254 61.0008 40.6692 59.6658 39.3342C58.3308 37.9992 56.746 36.9404 55.0017 36.2181C53.2574 35.4957 51.3879 35.1242 49.5 35.1245Z" fill="white"/>
<path d="M44.4988 56.6877L56.6851 49.1873L44.4988 42.3123V56.6877Z" fill="white"/>
</g>
</g>
<defs>
<clipPath id="clip0_2004_74">
<rect width="100" height="100" fill="white"/>
</clipPath>
<clipPath id="clip1_2004_74">
<rect width="55" height="55" fill="white" transform="translate(22 22)"/>
</clipPath>
</defs>
</svg>
