<svg width="100" height="100" viewBox="0 0 100 100" fill="none" xmlns="http://www.w3.org/2000/svg">
<g clip-path="url(#clip0_2004_2)">
<path d="M74.9977 68.963C74.9416 72.3297 72.1245 74.9983 68.7573 74.9983H45.6214C44.4455 74.9983 43.7041 73.7299 44.2851 72.7075C45.8182 70.0102 48.8127 65.599 53.2486 63.1142C53.7103 62.8556 54.2301 62.7178 54.7594 62.7178H68.8583C72.2845 62.7178 75.0551 65.5238 74.9977 68.963Z" fill="#F66346"/>
<path d="M56.5901 28.1673C55.0571 30.8646 52.0626 35.2758 47.6267 37.7606C47.1649 38.0192 46.6451 38.157 46.1159 38.157H32.1181C28.7508 38.157 25.9338 35.4884 25.8776 32.1217C25.8203 28.6825 28.5909 25.8765 32.017 25.8765H55.2539C56.4299 25.8765 57.1711 27.1448 56.5901 28.1673Z" fill="#F66346"/>
<path d="M32.0145 75C31.2313 75 30.4357 74.8493 29.6672 74.531C26.5341 73.2333 25.0463 69.6414 26.344 66.5085C28.3399 61.6901 31.2006 57.3703 34.8471 53.6693C38.6245 49.8352 43.0792 46.8393 48.0878 44.7647C54.9722 41.9129 60.334 36.5512 63.1854 29.6671C64.4831 26.534 68.0752 25.0464 71.208 26.3439C74.3411 27.6416 75.8289 31.2335 74.5312 34.3664C72.5353 39.1848 69.6745 43.5045 66.0281 47.2056C62.2507 51.0397 57.796 54.0356 52.7874 56.1102C45.9029 58.9619 40.5412 64.3237 37.6898 71.2078C36.7104 73.5723 34.4238 75 32.0145 75Z" fill="#F66346"/>
</g>
<defs>
<clipPath id="clip0_2004_2">
<rect width="100" height="100" fill="white"/>
</clipPath>
</defs>
</svg>
