<svg width="100" height="100" viewBox="0 0 100 100" fill="none" xmlns="http://www.w3.org/2000/svg">
<g clip-path="url(#clip0_2004_15)">
<g clip-path="url(#clip1_2004_15)">
<path d="M65.3813 76.7011C65.0062 79.4469 62.3085 81.6002 59.6107 80.8487C55.7877 79.8082 51.3588 78.1607 47.3771 77.8573L41.2602 77.3948C40.2776 77.3255 39.3541 76.899 38.6635 76.1953L28.1321 65.3856C26.9876 64.2073 26.6787 62.4478 27.3531 60.949C27.3531 60.949 33.845 46.6997 34.1047 45.9627C34.3355 45.2257 35.23 38.7514 35.7493 35.283C35.8949 34.3621 36.3536 33.5197 37.0477 32.8985L49.4833 21.7419C50.3114 20.9978 51.4092 20.6287 52.5177 20.7217C53.6263 20.8147 54.6475 21.3615 55.3405 22.2333L65.8141 35.4709C66.4002 36.2268 66.7152 37.1584 66.7085 38.1155C66.7085 40.6156 66.9249 45.7748 68.3243 49.0987C69.7128 52.088 71.4358 54.9097 73.4601 57.5095C73.9616 58.1616 74.0186 59.053 73.6044 59.7639C72.6955 61.3102 70.8778 64.2873 68.3243 68.088C66.7078 70.7013 65.6971 73.6446 65.3669 76.7011H65.3813Z" fill="black" fill-opacity="0.3"/>
<path d="M65.4823 76.2387C65.1072 78.9989 62.4095 81.1522 59.7117 80.4152C55.9031 79.3602 51.4886 77.7128 47.4925 77.4093L41.3901 76.9468C40.4051 76.875 39.4809 76.443 38.7933 75.7329L28.262 64.8942C27.1062 63.704 26.797 61.9258 27.4829 60.4142C27.4829 60.4142 33.9893 46.1072 34.2345 45.3557C34.4798 44.6187 35.3598 38.13 35.8792 34.6327C36.0216 33.7066 36.4805 32.8587 37.1775 32.2337L49.6132 21.0338C50.4431 20.2913 51.5421 19.9247 52.6507 20.0204C53.7593 20.1162 54.7794 20.6658 55.4703 21.5396L65.9295 34.835C66.5136 35.592 66.8284 36.5229 66.824 37.4796C66.824 39.9942 67.0404 45.1679 68.4253 48.5062C69.8128 51.5096 71.5358 54.3457 73.5611 56.9603C74.0735 57.6124 74.1365 58.5119 73.7198 59.2292C72.7965 60.79 70.9932 63.767 68.4253 67.5967C66.8146 70.2221 65.8092 73.1745 65.4823 76.2387Z" fill="#6C31E3"/>
<path d="M39.9186 76.5422C44.8092 66.614 44.6793 59.4894 42.5875 54.4313C40.6832 49.749 37.1198 46.8009 34.3211 44.9655C34.2634 45.2401 34.1768 45.5003 34.0614 45.7459L27.483 60.4142C26.8007 61.9287 27.1157 63.7073 28.2764 64.8942L38.7933 75.7329C39.1251 76.0653 39.5146 76.3399 39.9186 76.5422Z" fill="url(#paint0_radial_2004_15)"/>
<path d="M53.2198 56.3967C54.5326 56.5268 55.8166 56.8158 57.0861 57.2783C61.0967 58.7812 64.7466 62.1629 67.7617 68.6805C67.9781 68.3048 68.1945 67.9435 68.4253 67.5967C70.2679 64.8577 72.0335 62.0674 73.7198 59.2292C74.1406 58.5148 74.0834 57.6155 73.5756 56.9603C71.5452 54.3465 69.8174 51.5103 68.4253 48.5062C67.0404 45.1823 66.8384 39.9942 66.824 37.4796C66.824 36.5258 66.521 35.5865 65.9295 34.835L55.4703 21.5396L55.2972 21.3228C56.0618 23.8518 56.0185 25.8751 55.5425 27.7104C55.1097 29.4157 54.3018 30.962 53.4506 32.595C53.1621 33.1442 52.8736 33.7078 52.5995 34.2859C51.2428 36.8815 50.4651 39.7414 50.3201 42.6678C50.1758 46.165 50.8827 50.5438 53.2054 56.3967H53.2198Z" fill="url(#paint1_radial_2004_15)"/>
<path d="M53.2054 56.3967C50.8827 50.5438 50.1758 46.165 50.3201 42.6677C50.4643 39.1994 51.4742 36.5981 52.5995 34.2859L53.465 32.595C54.3018 30.962 55.0952 29.4157 55.5425 27.7104C56.0736 25.6017 55.9885 23.3844 55.2972 21.3228C53.8035 19.6787 51.2654 19.5497 49.6132 21.0338L37.1775 32.2337C36.4805 32.8587 36.0216 33.7066 35.8792 34.6327L34.3644 44.691C34.3644 44.7921 34.3355 44.8788 34.3211 44.98C37.1198 46.8009 40.6688 49.749 42.5875 54.4169C42.9626 55.3418 43.28 56.31 43.5108 57.365C46.6633 56.4892 49.9416 56.1569 53.2054 56.3823V56.3967Z" fill="url(#paint2_radial_2004_15)"/>
<path d="M59.7261 80.4152C62.4094 81.1522 65.1072 78.9989 65.4823 76.2242C65.7895 73.5923 66.5664 71.0371 67.7761 68.6805C64.7465 62.1629 61.0966 58.7812 57.1005 57.2783C52.8447 55.6886 48.2138 56.2233 43.5108 57.365C44.5639 62.1484 43.9435 68.406 39.933 76.5422C40.3802 76.7734 40.8851 76.9035 41.3901 76.9468L47.7233 77.4237C51.1568 77.6694 56.2782 79.4469 59.7261 80.4152Z" fill="url(#paint3_radial_2004_15)"/>
<path d="M50.3489 42.451C50.1902 45.9193 50.623 49.8791 52.9457 55.7175L52.2244 55.6452C50.1325 49.5611 49.6709 46.4396 49.8296 42.9279C49.9738 39.4162 51.1135 36.7137 52.2388 34.4015C52.5273 33.8234 53.1909 32.7395 53.4795 32.1904C54.3162 30.5574 54.8788 29.7047 55.3549 28.2162C56.0474 26.1352 55.9031 25.1525 55.8166 24.1698C56.3503 27.7104 54.3162 30.7886 52.787 33.9246C51.3713 36.5587 50.535 39.4661 50.3345 42.451H50.3489Z" fill="url(#paint4_radial_2004_15)"/>
<path d="M43.28 54.677C43.5685 55.3129 43.8137 55.8331 43.9869 56.6279L43.3665 56.7725C43.1213 55.8476 42.9337 55.1828 42.5731 54.388C40.4668 49.4311 37.091 46.8731 34.35 44.9944C37.6681 46.7864 41.0871 49.6045 43.28 54.677Z" fill="url(#paint5_radial_2004_15)"/>
<path d="M44.0157 57.2638C45.1698 62.6831 43.8714 69.5765 40.0484 76.282C43.2511 69.6343 44.8091 63.2612 43.5108 57.3505L44.0157 57.2494V57.2638Z" fill="url(#paint6_radial_2004_15)"/>
<path d="M57.2303 56.758C63.5059 59.1136 65.9295 64.2728 67.7328 68.5938C65.4967 64.0849 62.395 59.0992 56.9995 57.2494C52.9024 55.8331 49.44 56.0065 43.5108 57.3505L43.3809 56.7725C49.6709 55.3273 52.9601 55.1539 57.2303 56.7725V56.758Z" fill="url(#paint7_radial_2004_15)"/>
</g>
</g>
<defs>
<radialGradient id="paint0_radial_2004_15" cx="0" cy="0" r="1" gradientUnits="userSpaceOnUse" gradientTransform="translate(1252.95 3105.81) scale(2757.27 5172.03)">
<stop stop-color="white" stop-opacity="0.4"/>
<stop offset="1" stop-opacity="0.1"/>
</radialGradient>
<radialGradient id="paint1_radial_2004_15" cx="0" cy="0" r="1" gradientUnits="userSpaceOnUse" gradientTransform="translate(1304.32 4313.45) scale(4511.14 9015.06)">
<stop stop-color="white" stop-opacity="0.6"/>
<stop offset="1" stop-color="white" stop-opacity="0.1"/>
</radialGradient>
<radialGradient id="paint2_radial_2004_15" cx="0" cy="0" r="1" gradientUnits="userSpaceOnUse" gradientTransform="translate(706.604 3649.56) scale(3854.06 6677.64)">
<stop stop-color="white" stop-opacity="0.8"/>
<stop offset="1" stop-color="white" stop-opacity="0.4"/>
</radialGradient>
<radialGradient id="paint3_radial_2004_15" cx="0" cy="0" r="1" gradientUnits="userSpaceOnUse" gradientTransform="translate(2039.43 2483.83) scale(2563.96 2235.56)">
<stop stop-color="white" stop-opacity="0.3"/>
<stop offset="1" stop-opacity="0.3"/>
</radialGradient>
<radialGradient id="paint4_radial_2004_15" cx="0" cy="0" r="1" gradientUnits="userSpaceOnUse" gradientTransform="translate(763.888 1121.05) scale(2006.11 10370.7)">
<stop stop-color="white" stop-opacity="0"/>
<stop offset="1" stop-color="white" stop-opacity="0.2"/>
</radialGradient>
<radialGradient id="paint5_radial_2004_15" cx="0" cy="0" r="1" gradientUnits="userSpaceOnUse" gradientTransform="translate(-56.5356 147.604) scale(1479.19 1807.83)">
<stop stop-color="white" stop-opacity="0.2"/>
<stop offset="1" stop-color="white" stop-opacity="0.4"/>
</radialGradient>
<radialGradient id="paint6_radial_2004_15" cx="0" cy="0" r="1" gradientUnits="userSpaceOnUse" gradientTransform="translate(494.483 -364.744) scale(1726.6 7513.55)">
<stop stop-color="white" stop-opacity="0.1"/>
<stop offset="1" stop-color="white" stop-opacity="0.3"/>
</radialGradient>
<radialGradient id="paint7_radial_2004_15" cx="0" cy="0" r="1" gradientUnits="userSpaceOnUse" gradientTransform="translate(2462.69 1212.56) scale(4963.5 2643.84)">
<stop stop-color="white" stop-opacity="0.2"/>
<stop offset="0.5" stop-color="white" stop-opacity="0.2"/>
<stop offset="1" stop-color="white" stop-opacity="0.3"/>
</radialGradient>
<clipPath id="clip0_2004_15">
<rect width="100" height="100" fill="white"/>
</clipPath>
<clipPath id="clip1_2004_15">
<rect width="47" height="61" fill="white" transform="translate(27 20)"/>
</clipPath>
</defs>
</svg>
