<svg width="100" height="100" viewBox="0 0 100 100" fill="none" xmlns="http://www.w3.org/2000/svg">
<g clip-path="url(#clip0_2004_34)">
<path d="M44.7029 30.6355H44.7081C46.6477 23.8551 55.0992 20.5454 63.7117 20.5454C69.6632 20.5454 75.0058 22.4295 78.6683 25.4206C76.4826 25.5237 74.3245 25.9526 72.2654 26.6931C75.2249 27.7931 77.7671 29.4854 79.6512 31.5789C78.2297 31.3342 76.7884 31.2252 75.3463 31.2533C78.8906 36.3875 80.7842 42.4808 80.7742 48.7195C80.7742 65.7299 66.9845 79.5195 49.9741 79.5195C33.2259 79.5195 19.1741 65.4967 19.1741 48.7195C19.1741 46.0698 19.5261 43.3339 20.2098 40.7678C20.3894 40.2293 20.6393 39.7127 20.971 39.5235C21.3864 39.2868 21.7648 39.9926 21.8255 40.2222C22.2759 41.9092 22.8819 43.5507 23.6357 45.1256C23.5697 41.6091 25.0718 38.4059 27.1381 35.6357C28.5161 33.7885 29.7939 32.077 30.3835 27.1375C30.4231 26.8058 30.7373 26.5673 31.0549 26.6711C35.5394 28.139 37.9365 35.6066 37.5643 41.8511C40.0415 42.2057 40.0301 39.6177 40.0301 39.6177C39.2381 37.1836 39.7661 32.6595 44.6941 30.6355H44.7029Z" fill="url(#paint0_linear_2004_34)"/>
<path opacity="0.9" d="M79.7664 40.8762C80.5153 57.8162 66.5893 72.4215 49.6079 72.4215C33.7107 72.4215 20.6841 60.1341 19.5058 44.5387C19.2956 45.9992 19.185 47.4721 19.1749 48.9475C19.2955 65.6341 33.3129 79.5196 49.9749 79.5196C66.9853 79.5196 80.7749 65.73 80.7749 48.7196C80.7749 46.0092 80.4237 43.3806 79.7664 40.8762Z" fill="url(#paint1_radial_2004_34)"/>
<path style="mix-blend-mode:screen" d="M49.2234 32.8804C48.8916 32.2934 47.3596 31.4249 46.6899 31.2735C49.2243 23.1555 62.1357 20.6634 70.0381 22.0995C73.3267 22.6979 77.4222 24.4896 78.6683 25.4206C75.0057 22.4295 69.6623 20.5454 63.7117 20.5454C55.0992 20.5454 46.6476 23.8551 44.7081 30.6355H44.694C39.766 32.6595 39.238 37.1854 40.03 39.6186C40.7904 36.7154 44.408 33.1479 49.2234 32.8804Z" fill="url(#paint2_radial_2004_34)"/>
<path d="M58.1739 27.2738C51.2553 28.6352 48.9946 29.0805 46.6793 31.2813C49.2797 24.3971 55.9176 23.0014 63.827 26.1395C61.9446 26.5276 60.0602 26.906 58.1739 27.2747V27.2738Z" fill="url(#paint3_linear_2004_34)"/>
<path d="M20.8461 39.8254C18.9558 47.5642 20.4166 56.6598 29.0036 64.293C26.4472 61.4972 23.3259 51.1748 30.2136 43.8004C30.6773 43.3032 31.4755 43.6684 31.501 44.3478C32.0686 59.6738 44.4353 69.0344 58.693 67.2841C54.2754 67.0359 39.6657 61.9187 50.5337 59.8947C56.2141 58.8361 65.1205 57.1773 65.1205 49.1851C65.1205 36.2298 55.1035 32.4422 49.0289 33.0054C44.8717 33.3909 41.1713 36.0291 40.0326 39.6169C40.47 41.031 38.7267 42.021 37.5642 41.8547C37.9373 35.6111 35.5402 28.139 31.0549 26.6712C30.7381 26.5674 30.423 26.8058 30.3834 27.1376C29.7938 32.077 28.5161 33.7886 27.1389 35.6358C25.0718 38.4069 23.5697 41.6092 23.6357 45.1257C22.8819 43.5507 22.2759 41.9093 21.8255 40.2223C21.7753 40.0322 21.4999 39.5016 21.1673 39.477C20.9869 39.4638 20.8909 39.6398 20.8461 39.8254Z" fill="url(#paint4_radial_2004_34)"/>
<path style="mix-blend-mode:screen" d="M46.7172 60.6787C55.0807 67.4697 71.9001 62.378 71.9001 45.8665C65.11 56.159 56.4614 63.2589 46.718 60.6787H46.7172Z" fill="url(#paint5_linear_2004_34)"/>
<path style="mix-blend-mode:screen" d="M30.2137 43.8004C30.2897 43.7153 30.3855 43.6503 30.4926 43.6109C30.5997 43.5717 30.7149 43.5594 30.8279 43.5751C24.6627 51.0947 29.6356 64.3009 33.0482 67.5454C33.2392 68.0858 29.8106 65.2759 29.3381 64.6186C26.7421 62.4159 23.0215 51.5013 30.2137 43.8004Z" fill="url(#paint6_linear_2004_34)"/>
<path d="M49.974 61.3009C58.3393 61.3009 65.1215 55.7675 65.1215 48.9414C65.1215 42.1152 58.3393 36.5818 49.974 36.5818C42.8372 36.5818 34.8231 41.2246 34.8266 49.1218C34.8301 61.3247 47.7221 68.3454 58.7116 67.2823C57.8861 67.1864 52.7364 66.9127 49.256 62.9756C48.9418 62.621 48.3971 62.0014 48.6444 61.5993C48.8908 61.1971 49.5701 61.3001 49.9732 61.3001L49.974 61.3009Z" fill="url(#paint7_linear_2004_34)"/>
<path opacity="0.6" d="M63.4715 43.3252L51.5 54.781C50.4378 55.5361 49.307 55.5906 48.1912 54.906L36.4493 43.3674C36.7844 42.8291 37.161 42.3177 37.5757 41.838L38.8077 42.9908C41.8913 45.8807 44.3843 48.2154 47.8981 51.2144C49.4839 52.5678 49.9767 52.5414 51.5325 51.2144C55.5524 47.7824 58.4925 45.1864 62.3143 41.7729C62.7403 42.2592 63.127 42.7786 63.4706 43.3261L63.4715 43.3252Z" fill="white"/>
<mask id="mask0_2004_34" style="mask-type:luminance" maskUnits="userSpaceOnUse" x="34" y="43" width="32" height="25">
<path d="M65.1215 48.9413C65.1215 55.7674 58.3393 61.3009 49.974 61.3009C49.5701 61.3009 48.8916 61.197 48.6443 61.6001C48.3971 62.0013 48.9418 62.6209 49.2559 62.9755C52.526 66.675 57.2701 67.1405 58.5153 67.2629L58.7115 67.2822C47.7221 68.3453 34.8301 61.3246 34.8266 49.1217C34.8151 47.0898 35.3805 45.0965 36.4572 43.3735L48.2563 54.0901C49.0958 54.8522 50.5099 54.8522 51.3495 54.0901L63.372 43.1702C64.4896 44.8933 65.1215 46.8574 65.1215 48.9413Z" fill="white"/>
</mask>
<g mask="url(#mask0_2004_34)">
<path opacity="0.7" d="M31.3181 34.6861H69.6042V69.3995H31.3181V34.6861Z" fill="url(#paint8_linear_2004_34)"/>
<g filter="url(#filter0_f_2004_34)">
<path fill-rule="evenodd" clip-rule="evenodd" d="M46.4576 54.1622C44.2268 51.8408 37.5458 44.1276 37.5458 44.1276L38.0624 44.1505L48.5221 51.9622C49.3053 52.5316 50.4229 52.5254 51.199 51.949L61.4554 44.161L61.9993 44.1179C61.9993 44.1179 55.5366 51.6481 53.0611 54.1288C50.5857 56.6095 48.6884 56.4837 46.4576 54.1622Z" fill="#458FCD"/>
</g>
</g>
<path d="M52.0992 30.3987C53.7202 29.8883 53.5776 28.2841 53.5776 28.2841C53.5776 28.2841 52.7672 27.3293 51.1612 27.8581C49.6581 28.3536 49.4249 29.4245 49.4249 29.4245C49.4249 29.4245 50.246 30.9821 52.0992 30.3987Z" fill="white"/>
</g>
<defs>
<filter id="filter0_f_2004_34" x="5.54584" y="12.1179" width="88.4534" height="75.8286" filterUnits="userSpaceOnUse" color-interpolation-filters="sRGB">
<feFlood flood-opacity="0" result="BackgroundImageFix"/>
<feBlend mode="normal" in="SourceGraphic" in2="BackgroundImageFix" result="shape"/>
<feGaussianBlur stdDeviation="16" result="effect1_foregroundBlur_2004_34"/>
</filter>
<linearGradient id="paint0_linear_2004_34" x1="29.8643" y1="30.6971" x2="73.2835" y2="71.1965" gradientUnits="userSpaceOnUse">
<stop stop-color="#1B91F3"/>
<stop offset="1" stop-color="#0B68CB"/>
</linearGradient>
<radialGradient id="paint1_radial_2004_34" cx="0" cy="0" r="1" gradientUnits="userSpaceOnUse" gradientTransform="translate(29.7841 44.632) rotate(66.5177) scale(26.0445 24.9497)">
<stop offset="0.53" stop-color="#0B4186" stop-opacity="0"/>
<stop offset="1" stop-color="#0B4186" stop-opacity="0.45"/>
</radialGradient>
<radialGradient id="paint2_radial_2004_34" cx="0" cy="0" r="1" gradientUnits="userSpaceOnUse" gradientTransform="translate(50.766 33.9355) rotate(-127.997) scale(5.56778 9.21342)">
<stop stop-color="#EF3ACC" stop-opacity="0"/>
<stop offset="1" stop-color="#EF3ACC" stop-opacity="0.64"/>
</radialGradient>
<linearGradient id="paint3_linear_2004_34" x1="41.9458" y1="41.0643" x2="57.5693" y2="23.672" gradientUnits="userSpaceOnUse">
<stop stop-color="#0F5DB0"/>
<stop offset="1" stop-color="#0F5DB0" stop-opacity="0"/>
</linearGradient>
<radialGradient id="paint4_radial_2004_34" cx="0" cy="0" r="1" gradientUnits="userSpaceOnUse" gradientTransform="translate(38.358 65.5012) rotate(-64.2624) scale(40.631 50.1912)">
<stop offset="0.02" stop-color="#094188"/>
<stop offset="0.97" stop-color="#0B4186" stop-opacity="0"/>
</radialGradient>
<linearGradient id="paint5_linear_2004_34" x1="69.327" y1="53.6572" x2="62.0626" y2="71.4939" gradientUnits="userSpaceOnUse">
<stop stop-color="#E247C4" stop-opacity="0"/>
<stop offset="1" stop-color="#E247C4" stop-opacity="0.64"/>
</linearGradient>
<linearGradient id="paint6_linear_2004_34" x1="24.279" y1="37.6615" x2="30.6792" y2="63.4209" gradientUnits="userSpaceOnUse">
<stop offset="0.1" stop-color="#EF3ACC"/>
<stop offset="1" stop-color="#EF3ACC" stop-opacity="0"/>
</linearGradient>
<linearGradient id="paint7_linear_2004_34" x1="49.974" y1="41.1076" x2="49.974" y2="67.1555" gradientUnits="userSpaceOnUse">
<stop stop-color="white"/>
<stop offset="0.91" stop-color="#BEE1FE"/>
<stop offset="1" stop-color="#96CEFD"/>
</linearGradient>
<linearGradient id="paint8_linear_2004_34" x1="50.4616" y1="55.8475" x2="50.4616" y2="66.7595" gradientUnits="userSpaceOnUse">
<stop stop-color="#BCE0FD"/>
<stop offset="1" stop-color="#88CCFC"/>
</linearGradient>
<clipPath id="clip0_2004_34">
<rect width="100" height="100" fill="white"/>
</clipPath>
</defs>
</svg>
