<svg width="100" height="100" viewBox="0 0 100 100" fill="none" xmlns="http://www.w3.org/2000/svg">
<g clip-path="url(#clip0_2015_29)">
<path d="M55.0567 21L45.3886 21.9232V61.6411L54.9549 60.2056V43.272L67.8135 62.0543L77.8958 58.8716L64.7272 40.807L78 23.7695L67.7117 21.4108L54.9574 38.4483L55.0567 21ZM33.1405 30.6788C33.0277 30.6906 32.9224 30.7409 32.8425 30.8213L29.0489 34.6058C28.9716 34.6834 28.9224 34.7844 28.9092 34.893C28.8961 35.0016 28.9197 35.1115 28.9763 35.2052L33.4191 42.5083C32.6234 43.8435 31.9953 45.2712 31.5489 46.7593L23.3924 48.4509C23.2815 48.4737 23.1819 48.5341 23.1104 48.6217C23.0389 48.7093 22.9999 48.8188 23 48.9318V54.2848C23 54.5095 23.155 54.7053 23.3755 54.7584L31.2922 56.6918C31.7062 58.4094 32.3594 60.0607 33.2326 61.5976L28.6492 68.5673C28.588 68.6616 28.5611 68.774 28.573 68.8857C28.5849 68.9974 28.6349 69.1017 28.7146 69.1811L32.5082 72.968C32.5863 73.0454 32.6881 73.0945 32.7973 73.1076C32.9066 73.1208 33.0172 73.0972 33.1114 73.0405L40.2917 68.6905C41.7016 69.5025 43.2229 70.1405 44.8314 70.5755L46.5078 78.6109C46.5562 78.8381 46.7548 79 46.9874 79H52.3532C52.4634 79.0003 52.5705 78.9635 52.6571 78.8955C52.7437 78.8275 52.8048 78.7323 52.8304 78.6254L54.8048 70.5731C56.4418 70.1315 58.012 69.4723 59.4729 68.6132L66.5514 73.2411C66.7452 73.3692 67.0019 73.3426 67.1667 73.1783L70.9627 69.3938C71.0404 69.3165 71.0899 69.2153 71.103 69.1066C71.1162 68.9979 71.0924 68.888 71.0354 68.7944L68.4506 64.5459L67.6148 64.8118C67.5553 64.8303 67.4914 64.8293 67.4325 64.8088C67.3736 64.7884 67.3229 64.7496 67.2878 64.6982L63.5111 59.1833C62.3941 61.3674 60.7685 63.2525 58.7705 64.6806C56.7726 66.1087 54.4606 67.0382 52.0283 67.3911C49.5961 67.744 47.1144 67.5101 44.7915 66.7089C42.4685 65.9078 40.372 64.5627 38.6775 62.7866C36.9831 61.0104 35.7402 58.8549 35.053 56.5007C34.3658 54.1466 34.2544 51.6623 34.728 49.2564C35.2017 46.8504 36.2466 44.5927 37.7753 42.6727C39.3039 40.7526 41.2716 39.2261 43.5136 38.2212V34.2627C42.5422 34.601 41.5998 35.0118 40.7059 35.4976L40.7035 35.4928L33.4603 30.7561C33.3661 30.6936 33.2531 30.6678 33.1405 30.6788Z" fill="#34A853"/>
<mask id="mask0_2015_29" style="mask-type:alpha" maskUnits="userSpaceOnUse" x="44" y="15" width="39" height="49">
<path d="M44.5 64V19.5L80.5 15L83 60L67.5 63.5L63.5 58.5L44.5 64Z" fill="#D9D9D9"/>
</mask>
<g mask="url(#mask0_2015_29)">
<path d="M55.0567 21L45.3886 21.9232V61.6411L54.9549 60.2056V43.272L67.8135 62.0543L77.8958 58.8716L64.7272 40.807L78 23.7695L67.7117 21.4108L54.9574 38.4483L55.0567 21ZM33.1405 30.6788C33.0277 30.6906 32.9224 30.7409 32.8425 30.8213L29.0489 34.6058C28.9716 34.6834 28.9224 34.7844 28.9092 34.893C28.8961 35.0016 28.9197 35.1115 28.9763 35.2052L33.4191 42.5083C32.6234 43.8435 31.9953 45.2712 31.5489 46.7593L23.3924 48.4509C23.2815 48.4737 23.1819 48.5341 23.1104 48.6217C23.0389 48.7093 22.9999 48.8188 23 48.9318V54.2848C23 54.5095 23.155 54.7053 23.3755 54.7584L31.2922 56.6918C31.7062 58.4094 32.3594 60.0607 33.2326 61.5976L28.6492 68.5673C28.588 68.6616 28.5611 68.774 28.573 68.8857C28.5849 68.9974 28.6349 69.1017 28.7146 69.1811L32.5082 72.968C32.5863 73.0454 32.6881 73.0945 32.7973 73.1076C32.9066 73.1208 33.0172 73.0972 33.1114 73.0405L40.2917 68.6905C41.7016 69.5025 43.2229 70.1405 44.8314 70.5755L46.5078 78.6109C46.5562 78.8381 46.7548 79 46.9874 79H52.3532C52.4634 79.0003 52.5705 78.9635 52.6571 78.8955C52.7437 78.8275 52.8048 78.7323 52.8304 78.6254L54.8048 70.5731C56.4418 70.1315 58.012 69.4723 59.4729 68.6132L66.5514 73.2411C66.7452 73.3692 67.0019 73.3426 67.1667 73.1783L70.9627 69.3938C71.0404 69.3165 71.0899 69.2153 71.103 69.1066C71.1162 68.9979 71.0924 68.888 71.0354 68.7944L68.4506 64.5459L67.6148 64.8118C67.5553 64.8303 67.4914 64.8293 67.4325 64.8088C67.3736 64.7884 67.3229 64.7496 67.2878 64.6982L63.5111 59.1833C62.3941 61.3674 60.7685 63.2525 58.7705 64.6806C56.7726 66.1087 54.4606 67.0382 52.0283 67.3911C49.5961 67.744 47.1144 67.5101 44.7915 66.7089C42.4685 65.9078 40.372 64.5627 38.6775 62.7866C36.9831 61.0104 35.7402 58.8549 35.053 56.5007C34.3658 54.1466 34.2544 51.6623 34.728 49.2564C35.2017 46.8504 36.2466 44.5927 37.7753 42.6727C39.3039 40.7526 41.2716 39.2261 43.5136 38.2212V34.2627C42.5422 34.601 41.5998 35.0118 40.7059 35.4976L40.7035 35.4928L33.4603 30.7561C33.3661 30.6936 33.2531 30.6678 33.1405 30.6788Z" fill="#75D78F"/>
</g>
</g>
<defs>
<clipPath id="clip0_2015_29">
<rect width="100" height="100" fill="white"/>
</clipPath>
</defs>
</svg>
